<?xml version="1.0" encoding="iso-8859-1"?>
<!-- Generator: Adobe Illustrator 16.0.0, SVG Export Plug-In . SVG Version: 6.00 Build 0)  -->
<!DOCTYPE svg PUBLIC "-//W3C//DTD SVG 1.1//EN" "http://www.w3.org/Graphics/SVG/1.1/DTD/svg11.dtd">
<svg version="1.1" id="Capa_1" xmlns="http://www.w3.org/2000/svg" xmlns:xlink="http://www.w3.org/1999/xlink" x="0px" y="0px"
	 width="602.48px" height="602.48px" viewBox="0 0 602.48 602.48" style="enable-background:new 0 0 602.48 602.48;"
	 xml:space="preserve">
<g>
	<g>
		<path d="M573.785,233.173c-8.827-8.827-19.117-15.761-30.585-20.612c-11.896-5.031-24.507-7.582-37.483-7.582H96.763
			c-12.977,0-25.588,2.551-37.483,7.583c-11.468,4.851-21.758,11.785-30.585,20.612C19.868,242,12.933,252.291,8.082,263.759
			C3.051,275.653,0.5,288.265,0.5,301.24c0,12.977,2.551,25.588,7.582,37.482c4.851,11.469,11.785,21.76,20.612,30.586
			s19.118,15.762,30.585,20.611c11.896,5.031,24.506,7.582,37.483,7.582h408.955c12.977,0,25.588-2.551,37.482-7.582
			c11.468-4.85,21.759-11.785,30.586-20.611c8.826-8.828,15.762-19.117,20.612-30.586c5.031-11.895,7.582-24.506,7.582-37.482
			c0-12.976-2.551-25.586-7.582-37.482C589.548,252.29,582.612,242,573.785,233.173z M505.718,354.664H96.763
			c-14.752,0-28.108-5.98-37.776-15.648c-9.667-9.668-15.647-23.023-15.647-37.775c0-29.504,23.918-53.422,53.423-53.422h408.955
			c29.505,0,53.423,23.918,53.423,53.422C559.14,330.746,535.222,354.664,505.718,354.664z"/>
		<path d="M505.718,398.002H96.763c-13.044,0-25.721-2.564-37.678-7.621c-11.526-4.875-21.87-11.846-30.744-20.719
			c-8.872-8.871-15.843-19.215-20.719-30.745C2.564,326.961,0,314.285,0,301.24c0-13.043,2.564-25.72,7.622-37.676
			c4.875-11.527,11.846-21.871,20.719-30.744c8.872-8.873,19.216-15.843,30.744-20.719c11.956-5.058,24.633-7.623,37.678-7.623
			h408.954c13.044,0,25.721,2.564,37.678,7.622c11.528,4.876,21.872,11.847,30.744,20.719c8.873,8.873,15.845,19.217,20.721,30.744
			c5.057,11.957,7.621,24.633,7.621,37.677c0,13.045-2.564,25.721-7.621,37.677c-4.875,11.525-11.846,21.869-20.72,30.745
			c-8.874,8.873-19.218,15.844-30.745,20.719C531.438,395.438,518.763,398.002,505.718,398.002z M96.763,205.479
			c-12.911,0-25.457,2.538-37.289,7.543c-11.409,4.825-21.646,11.724-30.426,20.505c-8.781,8.782-15.68,19.019-20.505,30.427
			C3.538,275.786,1,288.332,1,301.24c0,12.91,2.538,25.455,7.542,37.288c4.826,11.41,11.725,21.647,20.505,30.427
			c8.783,8.781,19.02,15.681,30.426,20.504c11.833,5.005,24.379,7.543,37.289,7.543h408.955c12.91,0,25.455-2.538,37.288-7.543
			c11.407-4.823,21.645-11.723,30.427-20.504c8.782-8.784,15.682-19.021,20.505-30.427c5.005-11.833,7.543-24.378,7.543-37.288
			c0-12.909-2.538-25.454-7.543-37.287c-4.825-11.408-11.724-21.646-20.506-30.427c-8.781-8.78-19.018-15.679-30.426-20.505
			c-11.834-5.005-24.379-7.542-37.289-7.542H96.763z M505.718,355.164H96.763c-14.403,0-27.944-5.609-38.129-15.795
			C48.449,329.185,42.84,315.643,42.84,301.24c0-29.733,24.19-53.922,53.923-53.922h408.955c29.733,0,53.923,24.189,53.923,53.922
			C559.64,330.974,535.45,355.164,505.718,355.164z M96.763,248.318c-29.182,0-52.923,23.741-52.923,52.922
			c0,14.136,5.505,27.426,15.5,37.422c9.997,9.997,23.287,15.502,37.422,15.502h408.955c29.181,0,52.922-23.741,52.923-52.924
			c0-29.182-23.741-52.922-52.923-52.922H96.763z"/>
	</g>
</g>
<g>
</g>
<g>
</g>
<g>
</g>
<g>
</g>
<g>
</g>
<g>
</g>
<g>
</g>
<g>
</g>
<g>
</g>
<g>
</g>
<g>
</g>
<g>
</g>
<g>
</g>
<g>
</g>
<g>
</g>
</svg>
